<svg height="480pt" viewBox="-8 0 480 480" width="480pt" xmlns="http://www.w3.org/2000/svg"><path d="m456 104h-184v-80c0-13.253906-10.746094-24-24-24h-224c-13.253906 0-24 10.746094-24 24v432c0 13.253906 10.746094 24 24 24h224c13.253906 0 24-10.746094 24-24v-88h160c4.417969 0 8-3.582031 8-8v-16h16c4.417969 0 8-3.582031 8-8v-224c0-4.417969-3.582031-8-8-8zm-184 40h104.566406c3.609375 24.550781 22.886719 43.828125 47.433594 47.441406v65.125c-24.558594 3.585938-43.847656 22.875-47.433594 47.433594h-104.566406zm-248-128h224c4.417969 0 8 3.582031 8 8v16h-72c-2.675781 0-5.171875 1.335938-6.65625 3.558594l-13.625 20.441406h-55.4375l-13.601562-20.441406c-1.488282-2.230469-3.996094-3.566406-6.679688-3.558594h-72v-16c0-4.417969 3.582031-8 8-8zm224 448h-224c-4.417969 0-8-3.582031-8-8v-40h240v40c0 4.417969-3.582031 8-8 8zm8-64h-240v-344h67.71875l13.601562 20.441406c1.488282 2.230469 3.996094 3.566406 6.679688 3.558594h64c2.675781 0 5.171875-1.335938 6.65625-3.558594l13.625-20.441406h67.71875zm168-48h-152v-8h152zm24-24h-176v-8h112c4.417969 0 8-3.582031 8-8 .027344-22.082031 17.917969-39.972656 40-40 4.417969 0 8-3.582031 8-8v-80c0-4.417969-3.582031-8-8-8-13.972656.070312-26.949219-7.226562-34.152344-19.199219-3.863281-6.246093-5.890625-13.457031-5.847656-20.800781 0-4.417969-3.582031-8-8-8h-112v-8h176zm0 0"/><path d="m296 240h-16c0 13.253906 10.746094 24 24 24v8h16v-8c13.253906 0 24-10.746094 24-24s-10.746094-24-24-24v-16c4.417969 0 8 3.582031 8 8h16c0-13.253906-10.746094-24-24-24v-8h-16v8c-13.253906 0-24 10.746094-24 24s10.746094 24 24 24v16c-4.417969 0-8-3.582031-8-8zm0-32c0-4.417969 3.582031-8 8-8v16c-4.417969 0-8-3.582031-8-8zm24 24c4.417969 0 8 3.582031 8 8s-3.582031 8-8 8zm0 0"/><path d="m152 440c0 8.835938-7.164062 16-16 16s-16-7.164062-16-16 7.164062-16 16-16 16 7.164062 16 16zm0 0"/><path d="m112 32h48v16h-48zm0 0"/><path d="m40 104h8v-16h-16c-4.417969 0-8 3.582031-8 8v16h16zm0 0"/><path d="m240 88h-16v16h8v8h16v-16c0-4.417969-3.582031-8-8-8zm0 0"/><path d="m40 368h-16v16c0 4.417969 3.582031 8 8 8h16v-16h-8zm0 0"/><path d="m232 376h-8v16h16c4.417969 0 8-3.582031 8-8v-16h-16zm0 0"/><path d="m136 128c-53.019531 0-96 42.980469-96 96s42.980469 96 96 96 96-42.980469 96-96c-.058594-52.996094-43.003906-95.941406-96-96zm0 176c-44.183594 0-80-35.816406-80-80s35.816406-80 80-80 80 35.816406 80 80c-.046875 44.164062-35.835938 79.953125-80 80zm0 0"/><path d="m120.320312 243.601562-26.074218-32.601562-12.492188 10 32 40c1.472656 1.839844 3.679688 2.9375 6.039063 3h.207031c2.28125 0 4.457031-.976562 5.976562-2.679688l64-72-11.953124-10.640624zm0 0"/></svg>