<?xml version="1.0" encoding="utf-8"?>
<!-- Generator: Adobe Illustrator 22.0.1, SVG Export Plug-In . SVG Version: 6.00 Build 0)  -->
<svg version="1.1" id="Layer_1" xmlns="http://www.w3.org/2000/svg" xmlns:xlink="http://www.w3.org/1999/xlink" x="0px" y="0px"
	 viewBox="0 0 496 496" style="enable-background:new 0 0 496 496;" xml:space="preserve">
<g>
	<g>
		<g>
			<path d="M152,200c-35.3,0-64,28.7-64,64s28.7,64,64,64s64-28.7,64-64S187.3,200,152,200z M152,312c-26.5,0-48-21.5-48-48
				s21.5-48,48-48s48,21.5,48,48S178.5,312,152,312z"/>
			<path d="M160,232.4V224h-16v8.4c-9.1,1.9-16,9.9-16,19.6c0,11,9,20,20,20h8c2.2,0,4,1.8,4,4s-1.8,4-4,4h-8c-2.2,0-4-1.8-4-4v-4
				h-16v4c0,9.7,6.9,17.7,16,19.6v8.4h16v-8.4c9.1-1.9,16-9.9,16-19.6c0-11-9-20-20-20h-8c-2.2,0-4-1.8-4-4s1.8-4,4-4h8
				c2.2,0,4,1.8,4,4v4h16v-4C176,242.3,169.1,234.3,160,232.4z"/>
			<path d="M312,191.6v8.4h16v-8.4c9.1-1.9,16-9.9,16-19.6c0-11-9-20-20-20h-8c-2.2,0-4-1.8-4-4s1.8-4,4-4h8c2.2,0,4,1.8,4,4v4h16
				v-4c0-9.7-6.9-17.7-16-19.6V120h-16v8.4c-9.1,1.9-16,9.9-16,19.6c0,11,9,20,20,20h8c2.2,0,4,1.8,4,4s-1.8,4-4,4h-8
				c-2.2,0-4-1.8-4-4v-4h-16v4C296,181.7,302.9,189.7,312,191.6z"/>
			<path d="M208,128c35.3,0,64-28.7,64-64S243.3,0,208,0s-64,28.7-64,64S172.7,128,208,128z M208,16c26.5,0,48,21.5,48,48
				s-21.5,48-48,48s-48-21.5-48-48S181.5,16,208,16z"/>
			<path d="M200,95.6v8.4h16v-8.4c9.1-1.9,16-9.9,16-19.6c0-11-9-20-20-20h-8c-2.2,0-4-1.8-4-4s1.8-4,4-4h8c2.2,0,4,1.8,4,4v4h16v-4
				c0-9.7-6.9-17.7-16-19.6V24h-16v8.4c-9.1,1.9-16,9.9-16,19.6c0,11,9,20,20,20h8c2.2,0,4,1.8,4,4s-1.8,4-4,4h-8c-2.2,0-4-1.8-4-4
				v-4h-16v4C184,85.7,190.9,93.7,200,95.6z"/>
			<path d="M464,288h-24v-72c0-22.1-17.9-40-40-40h-18.1c1.3-5.1,2.1-10.5,2.1-16c0-35.3-28.7-64-64-64s-64,28.7-64,64
				c0,5.5,0.8,10.9,2.1,16H96c-22.1,0-40,17.9-40,40v192c0,22.1,17.9,40,40,40h72v32h-16v16h192v-16h-16v-32h72
				c22.1,0,40-17.9,40-40v-40l9.1,0L464,363V376h32v-16h-16v-72h16v-16h-32V288z M320,112c26.5,0,48,21.5,48,48s-21.5,48-48,48
				s-48-21.5-48-48S293.5,112,320,112z M312,480H184v-32h128V480z M424,408c0,13.2-10.8,24-24,24H96c-13.2,0-24-10.8-24-24v-8h352
				V408z M424,384H72V216c0-13.2,10.8-24,24-24h168.7c11.1,19.1,31.7,32,55.3,32s44.3-12.9,55.3-32H400c13.2,0,24,10.8,24,24v70.5
				l-19.7-13.2l-67.4-23.9c-6.4-2.3-13.3-1.8-19.4,1.3c-6.1,3.1-10.5,8.4-12.5,14.9c-3.4,11.3,1.6,23.5,12.1,29l17.3,9.2l-25.2,0.1
				l-10.3-25.9c-3.4-8.5-11.5-14-20.7-14c-7.1,0-13.9,3.5-18.1,9.3c-4.2,5.8-5.3,13.3-3,20.1l2.4,7.2l-17.6-9.6
				c-5.6-3-12.2-3.6-18.3-1.6c-6,2-11,6.5-13.6,12.3c-5.1,11.3-0.4,24.6,10.8,30.1l39.5,19.5l82,16.7l81.7,0.1V384z M292,303.9
				l-14.4,0l-5.3-15.7c-0.6-1.9-0.3-4,0.8-5.6c2.7-3.8,9.2-2.9,10.9,1.3L292,303.9z M464,346.2l-17.5,5.8H344.6l-78.2-15.6l-38.5-19
				c-3.4-1.7-4.8-5.7-3.3-9.1c0.8-1.8,2.3-3.1,4.1-3.7c1.8-0.6,3.8-0.5,5.5,0.5l27.5,15h75.9l31.6-15.8l-44.7-23.8
				c-3.7-1.9-5.5-6.2-4.2-10.2c0.7-2.3,2.3-4.2,4.4-5.2c2.1-1.1,4.6-1.2,6.8-0.5l64.7,22.7l25.2,16.8H464V346.2z"/>
		</g>
	</g>
</g>
</svg>
