<?xml version="1.0" encoding="utf-8"?>
<!-- Generator: Adobe Illustrator 22.0.1, SVG Export Plug-In . SVG Version: 6.00 Build 0)  -->
<svg version="1.1" id="Capa_1" xmlns="http://www.w3.org/2000/svg" xmlns:xlink="http://www.w3.org/1999/xlink" x="0px" y="0px"
	 viewBox="0 0 512.1 512.1" style="enable-background:new 0 0 512.1 512.1;" xml:space="preserve">
<g transform="translate(0 -1)">
	<g>
		<g>
			<path d="M37.8,229.2c15,75.8,81.5,130.5,158.8,130.6c43,0.1,84.3-17,114.8-47.5c54.7-54.6,63.1-140.3,20.2-204.6
				S206.3,18.5,134.8,48S22.8,153.4,37.8,229.2z M115.7,76.6c57.7-38.5,134.6-30.8,183.6,18.3l0,0c27.2,27.2,42.5,64.2,42.5,102.7
				c0,69.4-49,129.1-117.1,142.6S88.5,317.3,62,253.2S58,115.1,115.7,76.6z"/>
			<path d="M48.8,327c68.3,77.8,185.2,89.3,267.3,26.3l15.1,15.1c-1.6,5.9,0.1,12.1,4.4,16.4l108.7,108.7c4.3,4.4,10.6,6,16.4,4.4
				l7.7,7.7c4.8,4.8,11.3,7.5,18.1,7.5s13.3-2.7,18.1-7.5l-6-6.1l6,6c4.8-4.8,7.5-11.3,7.5-18.1s-2.7-13.3-7.5-18.1l-7.7-7.7
				c1.6-5.9-0.1-12.1-4.4-16.4L383.8,336.5c-4.3-4.3-10.6-5.9-16.4-4.4l-15.1-15.1C415.3,235,403.8,118,326,49.8
				S130.7-14.7,57.5,58.5C-15.7,131.7-19.5,249.2,48.8,327z M474.4,487.5l12.1-12.1l6.1,6.1c1.6,1.6,2.5,3.8,2.5,6
				c0,2.3-0.9,4.4-2.5,6v0l0,0c-3.4,3.2-8.7,3.2-12.1,0L474.4,487.5z M371.7,396.9l24.2-24.2l84.6,84.6l0,0l-12.1,12.1l-12.1,12.1
				L371.7,396.9z M347.6,372.8l12.1-12.1l12.1-12.1l0,0l12.1,12.1l-24.2,24.2L347.6,372.8z M329.2,342.3c2.1-1.9,4.3-3.7,6.4-5.7
				c2-2,3.8-4.2,5.7-6.4l12.4,12.4l-6,6l-6,6L329.2,342.3z M17.2,197.6c0-72.6,43.7-138,110.7-165.7c67-27.8,144.2-12.4,195.5,38.9
				c69.9,70.1,69.9,183.6,0,253.7c-51.3,51.3-128.5,66.7-195.5,38.9C60.9,335.6,17.2,270.2,17.2,197.6z"/>
			<path d="M128.1,187.8h-25.6c-9.4,0-17.1,7.6-17.1,17.1v51.2c0,4.7,3.8,8.5,8.5,8.5l196.3,0c4.7,0,8.5-3.8,8.5-8.5V136.6
				c0-9.4-7.6-17.1-17.1-17.1h-25.6c-9.4,0-17.1,7.6-17.1,17.1v110.9H222v-76.8c0-9.4-7.6-17.1-17.1-17.1h-25.6
				c-9.4,0-17.1,7.6-17.1,17.1v76.8h-17.1v-42.7C145.2,195.4,137.6,187.8,128.1,187.8L128.1,187.8z M256.1,136.6h25.6l0,110.9h-25.6
				V136.6z M179.3,170.7H205l0,76.8h-25.6V170.7z M102.5,201.9h25.6l0,42.7h-25.6V201.9z"/>
		</g>
	</g>
</g>
</svg>
