<?xml version="1.0" encoding="utf-8"?>
<!-- Generator: Adobe Illustrator 18.1.1, SVG Export Plug-In . SVG Version: 6.00 Build 0)  -->
<svg version="1.1" id="Слой_1" xmlns="http://www.w3.org/2000/svg" xmlns:xlink="http://www.w3.org/1999/xlink" x="0px" y="0px"
	 viewBox="0 0 99.2 99.2" enable-background="new 0 0 99.2 99.2" xml:space="preserve">
<g>
	<g>
		<path fill="#E2E2E2" d="M6.7,81.5v17.2H0.9V81.5H6.7z"/>
		<path fill="#E2E2E2" d="M0.9,73.3h5.8v5.8H0.9V73.3z"/>
		<path fill="#E2E2E2" d="M50.9,80.6v18.1h-5.4V97c-1.2,1.4-3,2.2-5.4,2.2c-4.8,0-8.7-4.2-8.7-9.6c0-5.4,3.9-9.6,8.7-9.6
			c2.4,0,4.2,0.8,5.4,2.2v-1.7H50.9z M45.4,89.6c0-2.7-1.8-4.4-4.3-4.4c-2.5,0-4.3,1.7-4.3,4.4s1.8,4.4,4.3,4.4
			C43.6,94.1,45.4,92.4,45.4,89.6z"/>
		<path fill="#E2E2E2" d="M25.2,89.4c2.8-1.4,4.7-4.2,4.7-7.4c0-4.8-3.9-8.7-8.7-8.7H11v5.4h8v0h2.2c1.6,0,2.9,1.4,2.9,3.3
			s-1.3,3.3-2.9,3.3h-4.4v-0.1H11v13.5h5.8v-8.3h2.8l4.8,8.3h6.2L25.2,89.4z"/>
		<path fill="#E2E2E2" d="M54.9,80.6h5.4v18.1h-5.4V80.6z"/>
		<path fill="#E2E2E2" d="M78.2,93.3c0,4.2-3.6,5.9-7.5,5.9c-3.6,0-6.4-1.4-7.8-4.3l4.7-2.7c0.5,1.4,1.5,2.1,3.1,2.1
			c1.3,0,2-0.4,2-1.1c0-2-8.9-0.9-8.9-7.2c0-4,3.3-5.9,7.1-5.9c2.9,0,5.5,1.3,7.1,3.9l-4.6,2.5c-0.5-0.9-1.2-1.6-2.4-1.6
			c-0.9,0-1.5,0.4-1.5,1C69.3,87.9,78.2,86.6,78.2,93.3z"/>
		<path fill="#E2E2E2" d="M89.9,94.4c1.5,0,2.8-0.6,3.5-1.4l4.4,2.5c-1.8,2.5-4.5,3.7-7.9,3.7c-6.2,0-10-4.2-10-9.6
			c0-5.4,3.9-9.6,9.6-9.6c5.3,0,9.2,4.1,9.2,9.6c0,0.8-0.1,1.5-0.2,2.2H85.6C86.3,93.7,87.9,94.4,89.9,94.4z M93.3,87.7
			c-0.6-2.1-2.2-2.9-3.8-2.9c-2.1,0-3.4,1-4,2.9H93.3z"/>
	</g>
	<g>
		
			<radialGradient id="SVGID_1_" cx="44.1055" cy="58.5939" r="26.9366" gradientTransform="matrix(1 0 0 0.7137 0 16.7731)" gradientUnits="userSpaceOnUse">
			<stop  offset="0" style="stop-color:#D96C47"/>
			<stop  offset="0.4606" style="stop-color:#955999"/>
			<stop  offset="0.874" style="stop-color:#3E2041"/>
		</radialGradient>
		<path fill="url(#SVGID_1_)" d="M50.9,39.3c0,0-19.2-6.6-19.7-6.5c-0.5,0.1-7.4,3-7.4,3l-3.2,7.7l0,0c-1.4,1.6-2.3,3.7-2.3,6
			c0,4.8,4,8.7,8.8,8.7c1.9,0,3.7-0.6,5.1-1.7c0.8-0.3,2-2.1,2-2.1c0.3-0.4,0.6-0.9,0.8-1.4C38.6,47.5,46.1,39.9,50.9,39.3z"/>
		
			<radialGradient id="SVGID_2_" cx="69.2717" cy="41.755" r="56.6515" gradientTransform="matrix(0.6911 0.7228 -0.9462 0.9047 60.9061 -46.0883)" gradientUnits="userSpaceOnUse">
			<stop  offset="0" style="stop-color:#441F42"/>
			<stop  offset="0.3182" style="stop-color:#975A96"/>
			<stop  offset="0.6853" style="stop-color:#CF6A50"/>
			<stop  offset="1" style="stop-color:#955999"/>
		</radialGradient>
		<path fill="url(#SVGID_2_)" d="M72.1,2.5c-19.1-11-58.6,17.2-53.7,47.7c8.5-9.8,28.9-9.8,42.9-12C78.2,35.5,91.2,13.4,72.1,2.5z
			 M69.8,15.8c-1.2,6.3-7.5,5.2-18.1,5.9c2.4-1.8,5-3.4,7.6-4.6c3.3-1.5,7.2-1.9,10.5-1.4C69.8,15.7,69.8,15.8,69.8,15.8z"/>
		<linearGradient id="SVGID_3_" gradientUnits="userSpaceOnUse" x1="35.434" y1="16.194" x2="69.8629" y2="16.194">
			<stop  offset="0.126" style="stop-color:#3E2041"/>
			<stop  offset="0.5394" style="stop-color:#955999"/>
			<stop  offset="1" style="stop-color:#D96C47"/>
		</linearGradient>
		<path fill="url(#SVGID_3_)" d="M69.8,15.7C71,8.3,59.5,6,51.6,9.5c-7.4,3.3-15.1,10.5-16.2,15c6.2-1.8,11.6-2.4,16.3-2.7
			c2.4-1.8,5-3.4,7.6-4.6C62.5,15.7,66.4,15.2,69.8,15.7z"/>
		<linearGradient id="SVGID_4_" gradientUnits="userSpaceOnUse" x1="30.5274" y1="4.5112" x2="57.167" y2="39.2286">
			<stop  offset="0" style="stop-color:#FFFFFF;stop-opacity:0"/>
			<stop  offset="0.3182" style="stop-color:#E6F3FC"/>
			<stop  offset="0.6853" style="stop-color:#F3FAFE;stop-opacity:0"/>
			<stop  offset="1" style="stop-color:#E5F3FD"/>
		</linearGradient>
		<path opacity="0.4" fill="url(#SVGID_4_)" d="M76.5,5.6c-1.2-1.1-2.6-2.2-4.3-3.2C53.7-8.1,16.2,17.7,18.1,47
			c9.2-8.4,28.3-8.5,41.6-10.7C74.2,34,85.9,17.2,76.5,5.6z M35.4,24.5c1.1-4.5,8.8-11.6,16.2-15c7.9-3.5,19.3-1.3,18.2,6.1
			c0,0,0,0,0,0c0,0.1,0,0.1,0,0.2c-1.2,6.3-10.4,5.5-18.1,5.9C47.1,22,41.6,22.7,35.4,24.5z"/>
		<linearGradient id="SVGID_5_" gradientUnits="userSpaceOnUse" x1="51.839" y1="45.3931" x2="63.4395" y2="60.4738">
			<stop  offset="0.126" style="stop-color:#3E2041"/>
			<stop  offset="0.5394" style="stop-color:#955999"/>
			<stop  offset="1" style="stop-color:#D96C47"/>
		</linearGradient>
		<circle fill="url(#SVGID_5_)" cx="57.7" cy="53" r="9.6"/>
		<linearGradient id="SVGID_6_" gradientUnits="userSpaceOnUse" x1="45.5986" y1="16.878" x2="31.6772" y2="1.4957">
			<stop  offset="0" style="stop-color:#FFFFFF;stop-opacity:0"/>
			<stop  offset="0.7677" style="stop-color:#E5F3FD"/>
		</linearGradient>
		<path fill="url(#SVGID_6_)" d="M21.8,33.3c0,0,0.3-1,1-2.7c0.7-1.7,1.8-4,3.4-6.6c1.6-2.6,3.7-5.5,6.4-8.3
			c1.3-1.4,2.8-2.8,4.3-4.1c1.6-1.3,3.2-2.5,5-3.6c0.9-0.6,1.8-1.1,2.6-1.6c0.4-0.2,0.9-0.5,1.3-0.7c0.4-0.2,0.9-0.5,1.4-0.7
			c1.8-0.9,3.7-1.6,5.5-2.2c1.9-0.6,3.7-1,5.4-1.3c1.8-0.2,3.5-0.3,5-0.2c1.6,0.1,3,0.3,4.2,0.6C68,2,68.6,2.1,69.1,2.3
			c0.5,0.2,1,0.4,1.4,0.5c0.8,0.4,1.4,0.7,1.8,1c0.2,0.1,0.3,0.3,0.4,0.3c0.1,0.1,0.1,0.1,0.1,0.1c0,0,0,0,0,0.1c0,0,0,0,0,0l0,0
			c0,0,0,0-0.1-0.1c-0.1-0.1-0.2-0.2-0.4-0.3c-0.4-0.2-1-0.6-1.9-0.9c-0.8-0.3-1.9-0.6-3.1-0.9c-0.6-0.1-1.3-0.2-1.9-0.3
			c-0.7-0.1-1.4-0.1-2.2-0.1c-1.5,0-3.2,0.1-4.9,0.4c-1.7,0.3-3.5,0.7-5.3,1.3c-1.8,0.6-3.7,1.3-5.5,2.1c-0.4,0.2-0.9,0.4-1.4,0.7
			c-0.5,0.2-0.9,0.5-1.4,0.7c-0.9,0.5-1.8,1-2.6,1.5c-1.7,1.1-3.4,2.3-5,3.5c-1.6,1.3-3,2.6-4.4,4c-2.7,2.7-4.9,5.6-6.5,8.2
			c-1.7,2.6-2.8,4.9-3.5,6.5C22.2,32.3,21.9,33.3,21.8,33.3C21.9,33.3,21.9,33.3,21.8,33.3C21.8,33.3,21.8,33.3,21.8,33.3z"/>
		
			<radialGradient id="SVGID_7_" cx="55.6446" cy="460.8824" r="3.4154" gradientTransform="matrix(0.7071 0.7071 -1.0945 1.0945 519.2921 -494.4119)" gradientUnits="userSpaceOnUse">
			<stop  offset="0" style="stop-color:#FFFFFF"/>
			<stop  offset="1" style="stop-color:#FFFFFF;stop-opacity:0"/>
		</radialGradient>
		<path opacity="0.2" fill="url(#SVGID_7_)" d="M57,52.1c-2.5,2.5-5.8,3.3-7.3,1.8c-1.5-1.5-0.7-4.8,1.8-7.3
			c2.5-2.5,5.8-3.3,7.3-1.8C60.3,46.3,59.5,49.6,57,52.1z"/>
	</g>
</g>
</svg>
